<svg width="363" height="80" viewBox="0 0 318 138" fill="none" xmlns="http://www.w3.org/2000/svg">
<path d="M54.0963 119.175L52.4351 121.489C51.7864 120.699 51.0112 120.078 50.1094 119.627C49.2076 119.175 48.2584 118.949 47.2617 118.949C45.9643 118.949 44.7817 119.297 43.7138 119.994C42.6459 120.69 41.8113 121.64 41.2101 122.844C40.5931 124.105 40.2846 125.506 40.2846 127.049C40.2846 128.517 40.6169 129.872 41.2813 131.113C41.9142 132.28 42.7646 133.207 43.8325 133.893C44.9004 134.58 46.0514 134.924 47.2854 134.924C48.4245 134.924 49.4845 134.632 50.4654 134.049C51.4463 133.465 52.2611 132.656 52.9097 131.622L54.4997 134.19C53.5979 135.394 52.5182 136.33 51.2604 136.998C50.0026 137.666 48.6697 138 47.2617 138C45.5055 138 43.8918 137.492 42.4204 136.476C40.9807 135.498 39.8495 134.152 39.0269 132.44C38.1725 130.69 37.7454 128.771 37.7454 126.682C37.7454 124.669 38.1963 122.816 39.0981 121.122C39.9524 119.504 41.1113 118.22 42.5747 117.27C44.0381 116.32 45.6084 115.845 47.2854 115.845C48.5985 115.845 49.8484 116.146 51.035 116.748C52.1899 117.312 53.2103 118.121 54.0963 119.175V119.175ZM73.6035 126.852C73.6035 125.347 73.2792 123.982 72.6305 122.759C72.0135 121.574 71.1711 120.643 70.1031 119.965C69.0352 119.288 67.8763 118.949 66.6265 118.949C65.3292 118.949 64.1466 119.297 63.0786 119.994C62.0107 120.69 61.1762 121.64 60.575 122.844C59.958 124.105 59.6495 125.506 59.6495 127.049C59.6495 128.517 59.9817 129.872 60.6462 131.113C61.279 132.28 62.1294 133.207 63.1973 133.893C64.2652 134.58 65.4201 134.924 66.6621 134.924C67.904 134.924 69.059 134.566 70.1269 133.851C71.1948 133.136 72.0372 132.177 72.6543 130.972C73.2871 129.712 73.6035 128.338 73.6035 126.852V126.852ZM76.1665 127.021C76.1665 129.053 75.7235 130.925 74.8376 132.638C73.9832 134.275 72.8243 135.577 71.3609 136.546C69.8975 137.515 68.3193 138 66.6265 138C64.8704 138 63.2566 137.492 61.7853 136.476C60.3456 135.498 59.2144 134.152 58.3917 132.44C57.5374 130.69 57.1102 128.771 57.1102 126.682C57.1102 124.669 57.5611 122.816 58.4629 121.122C59.3172 119.504 60.4761 118.22 61.9395 117.27C63.403 116.32 64.9732 115.845 66.6502 115.845C68.3747 115.845 69.9726 116.343 71.444 117.341C72.8837 118.319 74.0228 119.645 74.8613 121.32C75.7314 123.07 76.1665 124.97 76.1665 127.021V127.021ZM95.3178 123.042L89.2663 131.65L83.2622 123.042V137.52H80.7229V119.429L78.6583 116.466H82.0044L89.2425 126.795L96.5755 116.466H99.9217L97.857 119.429V137.52H95.3178V123.042V123.042ZM106.139 137.52H103.6V116.466H106.139V137.52ZM126.525 119.175L124.863 121.489C124.215 120.699 123.439 120.078 122.538 119.627C121.636 119.175 120.687 118.949 119.69 118.949C118.393 118.949 117.21 119.297 116.142 119.994C115.074 120.69 114.24 121.64 113.638 122.844C113.021 124.105 112.713 125.506 112.713 127.049C112.713 128.517 113.045 129.872 113.71 131.113C114.342 132.28 115.193 133.207 116.261 133.893C117.329 134.58 118.48 134.924 119.714 134.924C120.853 134.924 121.913 134.632 122.894 134.049C123.875 133.465 124.689 132.656 125.338 131.622L126.928 134.19C126.026 135.394 124.946 136.33 123.689 136.998C122.431 137.666 121.098 138 119.69 138C117.934 138 116.32 137.492 114.849 136.476C113.409 135.498 112.278 134.152 111.455 132.44C110.601 130.69 110.174 128.771 110.174 126.682C110.174 124.669 110.625 122.816 111.526 121.122C112.381 119.504 113.54 118.22 115.003 117.27C116.466 116.32 118.037 115.845 119.714 115.845C121.027 115.845 122.277 116.146 123.463 116.748C124.618 117.312 125.639 118.121 126.525 119.175V119.175ZM144.489 131.113C144.489 132.487 144.141 133.71 143.445 134.783C142.765 135.799 141.827 136.589 140.633 137.153C139.438 137.718 138.09 138 136.587 138C135.21 138 133.873 137.619 132.576 136.857C131.279 136.095 130.187 135.037 129.301 133.682L131.152 131.622C132.687 133.823 134.498 134.924 136.587 134.924C137.504 134.924 138.343 134.792 139.102 134.529C139.941 134.227 140.589 133.804 141.048 133.258C141.57 132.656 141.831 131.941 141.831 131.113C141.831 130.116 141.57 129.364 141.048 128.856C140.605 128.423 139.949 128.141 139.078 128.009C138.572 127.934 137.742 127.896 136.587 127.896C134.467 127.896 132.849 127.435 131.734 126.513C130.618 125.591 130.061 124.236 130.061 122.449C130.061 121.32 130.341 120.248 130.903 119.231C131.465 118.215 132.236 117.406 133.217 116.804C134.229 116.165 135.353 115.845 136.587 115.845C137.979 115.845 139.237 116.099 140.36 116.607C141.562 117.152 142.678 118.008 143.706 119.175L142.092 121.433C141.127 120.511 140.249 119.867 139.458 119.5C138.667 119.133 137.71 118.949 136.587 118.949C135.938 118.949 135.333 119.109 134.771 119.429C134.21 119.749 133.763 120.177 133.43 120.713C133.098 121.249 132.932 121.819 132.932 122.421C132.932 124.039 134.19 124.848 136.705 124.848C138.715 124.848 140.305 125.093 141.475 125.582C142.583 126.052 143.374 126.767 143.849 127.727C144.276 128.573 144.489 129.702 144.489 131.113V131.113ZM167.176 119.062L165.563 121.32C165.041 120.492 164.352 119.871 163.498 119.457C162.802 119.119 162.066 118.949 161.291 118.949C160.706 118.949 160.144 119.053 159.606 119.26C158.973 119.523 158.475 119.89 158.111 120.36C157.684 120.944 157.47 121.645 157.47 122.463C157.47 123.282 157.72 123.931 158.218 124.41C158.716 124.89 159.345 125.13 160.105 125.13H162.715L162.525 128.206H160.057C159.472 128.206 158.926 128.319 158.42 128.545C157.85 128.809 157.407 129.185 157.091 129.674C156.711 130.22 156.521 130.888 156.521 131.678C156.521 133.823 157.818 134.895 160.413 134.895C161.41 134.895 162.454 134.585 163.546 133.964C164.574 133.362 165.444 132.609 166.156 131.706L166.37 128.206H164.542L164.756 125.13H170.855L170.641 128.206H168.909L168.339 137.52H165.824L165.966 134.895C165.112 135.799 164.17 136.514 163.142 137.04C162.145 137.548 161.236 137.802 160.413 137.802C158.246 137.802 156.608 137.229 155.501 136.081C154.472 135.027 153.958 133.578 153.958 131.734C153.958 129.382 154.789 127.501 156.45 126.09C155.912 125.657 155.516 125.187 155.263 124.679C154.994 124.133 154.86 123.493 154.86 122.759C154.86 121.762 155.034 120.803 155.382 119.881C155.809 118.695 156.458 117.764 157.328 117.087C158.404 116.259 159.741 115.845 161.339 115.845C162.652 115.845 163.838 116.174 164.898 116.833C165.768 117.378 166.528 118.121 167.176 119.062V119.062ZM196.912 123.042L190.86 131.65L184.856 123.042V137.52H182.317V119.429L180.252 116.466H183.599L190.837 126.795L198.17 116.466H201.516L199.451 119.429V137.52H196.912V123.042ZM210.724 118.695L209.751 116.099H212.598L221.118 137.52H218.223L217.06 134.444H211.673C210.66 134.444 209.751 134.557 208.944 134.783C208.232 134.989 207.639 135.262 207.164 135.601C206.737 135.902 206.452 136.213 206.31 136.532L205.859 137.52H203.058L210.724 118.695ZM212.622 131.339H215.897L212.029 122.449L208.113 132.525C208.461 132.167 208.991 131.885 209.703 131.678C210.51 131.452 211.483 131.339 212.622 131.339ZM224.962 119.429L222.898 116.466H226.244L237.611 132.553V116.466H240.222V137.52H237.659L227.502 123.042V137.52H224.962V119.429ZM260.607 119.175L258.946 121.489C258.297 120.699 257.522 120.078 256.62 119.627C255.718 119.175 254.769 118.949 253.772 118.949C252.475 118.949 251.292 119.297 250.225 119.994C249.157 120.69 248.322 121.64 247.721 122.844C247.104 124.105 246.795 125.506 246.795 127.049C246.795 128.517 247.128 129.872 247.792 131.113C248.425 132.28 249.275 133.207 250.343 133.893C251.411 134.58 252.562 134.924 253.796 134.924C254.666 134.924 255.501 134.745 256.3 134.387C257.099 134.03 257.815 133.531 258.447 132.892V129.053H256.169L255.054 126.005H261.01V134.19C260.109 135.394 259.029 136.33 257.771 136.998C256.513 137.666 255.18 138 253.772 138C252.016 138 250.403 137.492 248.931 136.476C247.491 135.498 246.36 134.152 245.538 132.44C244.683 130.69 244.256 128.771 244.256 126.682C244.256 124.669 244.707 122.816 245.609 121.122C246.463 119.504 247.622 118.22 249.085 117.27C250.549 116.32 252.119 115.845 253.796 115.845C255.109 115.845 256.359 116.146 257.546 116.748C258.701 117.312 259.721 118.121 260.607 119.175V119.175ZM270.93 118.695L269.957 116.099H272.805L281.325 137.52H278.429L277.266 134.444H271.879C270.867 134.444 269.957 134.557 269.15 134.783C268.438 134.989 267.845 135.262 267.37 135.601C266.943 135.902 266.659 136.213 266.516 136.532L266.065 137.52H263.265L270.93 118.695ZM272.829 131.339H276.104L272.235 122.449L268.32 132.525C268.668 132.167 269.198 131.885 269.91 131.678C270.717 131.452 271.69 131.339 272.829 131.339Z" fill="#35D0BA"/>
<path d="M15.7741 25.2846C22.6225 26.0387 26.8076 30.8652 26.8076 46.5513C26.8076 67.0638 21.6079 71.9657 17.4228 73.0969C13.301 74.2281 10.9548 71.2869 5.12101 73.4739C6.7697 61.7848 7.15017 49.8695 6.26241 38.0295C5.56489 33.1276 3.78938 32.826 2.45774 34.9376C-1.41034 30.1111 -0.522583 22.9468 3.78938 21.891C7.59404 20.9106 7.84769 24.4551 14.2522 25.2092C14.7595 25.2092 15.2668 25.2092 15.7741 25.2846V25.2846ZM14.3156 61.7094C21.925 60.6536 20.2129 34.7113 14.5059 33.8818C13.6815 36.0688 12.6035 50.1711 14.3156 61.7094ZM47.7666 64.2735C46.6886 67.1392 46.8154 71.0607 48.1471 73.851C45.4838 72.7952 35.5282 71.664 28.8067 73.4739C30.5188 62.8406 31.0895 51.9056 30.709 41.0461C30.2017 33.5047 28.1725 32.5243 26.5873 34.9376C22.7192 30.1111 23.6069 22.9468 27.9189 21.891C31.9772 20.8352 32.865 26.3404 40.6011 26.0387C42.6303 25.8879 44.6594 25.4354 46.6252 24.8321C45.2301 28.452 45.1033 32.6751 46.3081 36.3704C43.9619 35.3146 41.4255 34.9376 38.9524 35.39C38.572 35.4654 38.2549 35.5409 38.0013 35.7671C37.6842 36.0688 37.494 36.4458 37.3672 36.8983C36.5428 39.5378 36.2892 42.4035 36.6696 45.1938C36.6696 45.42 36.7331 45.7217 36.8599 45.9479C37.0501 46.0988 37.3038 46.1742 37.5574 46.1742C39.8402 46.4004 42.5035 45.9479 44.596 44.8167C43.7083 48.2104 43.6449 52.3581 44.6594 55.6009C42.3766 54.6205 40.3475 53.791 38.0647 54.3943C37.811 54.4697 37.6208 54.5451 37.494 54.6959C37.3038 54.9222 37.1769 55.1484 37.1135 55.4501C36.3526 58.3158 36.416 61.5586 37.3038 64.4243C37.4306 64.8014 37.5574 65.2538 37.8745 65.4801C38.889 66.2342 41.2987 65.8571 42.5035 65.7817C44.279 65.5555 46.1179 65.103 47.7666 64.2735ZM69.106 64.2735C68.028 67.1392 68.1549 71.0607 69.4865 73.851C66.8232 72.7952 56.8677 71.664 50.1461 73.4739C51.8582 62.8406 52.4289 51.9056 52.0484 41.0461C51.5411 33.5047 49.512 32.5243 47.9267 34.9376C44.0586 30.1111 44.9464 22.9468 49.2583 21.891C53.3167 20.8352 54.2044 26.3404 61.9406 26.0387C63.9697 25.8879 65.9989 25.4354 67.9646 24.8321C66.5696 28.452 66.4428 32.6751 67.6476 36.3704C65.3014 35.3146 62.7649 34.9376 60.2919 35.39C59.9114 35.4654 59.5944 35.5409 59.3407 35.7671C59.0237 36.0688 58.8334 36.4458 58.7066 36.8983C57.8823 39.5378 57.6286 42.4035 58.0091 45.1938C58.0091 45.42 58.0725 45.7217 58.1993 45.9479C58.3895 46.0988 58.6432 46.1742 58.8968 46.1742C61.1796 46.4004 63.8429 45.9479 65.9355 44.8167C65.0477 48.2104 64.9843 52.3581 65.9989 55.6009C63.7161 54.6205 61.6869 53.791 59.4041 54.3943C59.1505 54.4697 58.9602 54.5451 58.8334 54.6959C58.6432 54.9222 58.5164 55.1484 58.453 55.4501C57.692 58.3158 57.7554 61.5586 58.6432 64.4243C58.77 64.8014 58.8968 65.2538 59.2139 65.4801C60.2285 66.2342 62.6381 65.8571 63.8429 65.7817C65.6184 65.5555 67.4573 65.103 69.106 64.2735V64.2735ZM83.4068 24.5305C86.514 24.5305 90.1918 26.9437 91.3966 36.5212C91.8405 40.1411 91.7771 43.9872 90.3821 47.3054C89.3675 49.6432 87.592 51.6794 85.436 52.4335C84.8653 52.6598 81.885 53.2631 80.2363 52.886C79.7924 59.5978 79.7924 66.9129 82.6459 73.0969C79.9826 71.8148 73.9586 71.8902 71.6124 73.851C73.261 62.3127 73.6415 50.4728 72.8172 38.7836C72.1196 33.3539 70.3441 32.7506 68.9491 34.9376C65.081 30.1111 65.9688 22.9468 70.2807 21.891C73.8952 20.9106 74.0854 25.1338 80.1094 24.9075C80.9972 24.7567 81.885 24.6059 82.6459 24.5305H82.7093H83.4068V24.5305ZM83.7239 40.8198C83.9141 39.3115 83.7239 32.2227 80.3631 32.826C79.9826 35.7671 80.046 41.4231 80.3631 44.4397C81.5679 44.5905 82.7727 43.7609 83.3434 42.4789C83.5337 41.951 83.6605 41.4231 83.7239 40.8198V40.8198Z" fill="#111111"/>
<path d="M155.807 32.963L155.573 33.1021C155.456 32.963 155.456 32.8239 155.339 32.6848C155.222 32.4066 154.988 32.4066 154.754 32.5457C154.637 32.6848 154.52 32.963 154.637 33.2411C154.988 33.9366 155.339 34.4929 155.69 35.0492C156.274 35.8838 156.859 36.5792 157.561 37.1355C158.146 37.5528 158.73 37.97 159.315 38.2482C159.549 38.3873 160.017 38.5264 160.484 38.5264C160.835 38.5264 161.186 38.5264 161.42 38.2482C161.42 38.2482 161.42 38.2482 161.537 38.2482C161.771 38.1091 161.888 37.97 161.888 37.6919V37.5528L161.654 36.7183C161.654 36.5792 161.537 36.5792 161.537 36.5792C161.069 36.1619 160.368 35.8838 159.549 35.6056C158.262 35.0492 156.625 34.4929 155.807 32.963Z" fill="#35D0BA"/>
<path d="M165.63 38.5264C165.864 38.5264 166.098 38.3873 166.098 38.1091C166.215 37.2746 166.8 35.8838 167.034 35.8838C167.267 35.8838 167.501 35.7447 167.501 35.4665C167.501 35.1883 167.384 34.9102 167.15 34.9102C165.981 34.7711 165.279 37.4137 165.162 38.1091C165.162 38.2482 165.396 38.5264 165.63 38.5264Z" fill="#35D0BA"/>
<path d="M159.9 42.9771C160.367 42.5598 160.835 42.0035 161.069 41.169C161.069 41.0299 161.069 41.0299 161.069 40.8908C161.186 40.8908 161.42 40.7517 161.537 40.7517C162.005 40.4735 162.239 40.0563 162.356 39.639C162.473 39.3609 162.589 39.2218 162.706 39.0827C162.94 38.9436 162.94 38.5264 162.706 38.2482C162.589 38.1091 162.239 38.1091 162.122 38.2482L162.005 38.3873C161.888 38.6654 161.654 38.8045 161.537 39.0827C161.42 39.3609 161.42 39.3609 161.186 39.4999C160.835 39.7781 159.9 39.2218 159.315 38.9436C158.847 38.6654 154.754 36.301 153.818 34.9102C153.701 34.632 153.468 34.4929 153.234 34.2147C153 33.9366 152.883 33.7975 152.649 33.5193C152.532 33.3802 152.415 33.1021 152.415 32.963C152.298 32.6848 151.947 32.5457 151.713 32.6848C151.479 32.8239 151.479 33.1021 151.596 33.3802C151.83 33.9366 152.181 34.4929 152.649 34.9102C152.766 35.0492 152.766 35.0492 152.883 35.1883C152.649 35.8837 153 38.6654 153 38.6654C153 38.8045 153 38.9436 153.117 39.0827C153.234 39.7781 153.468 40.3344 153.818 41.0299C153.935 41.169 153.935 41.308 154.052 41.4471C154.754 42.838 156.04 43.9506 157.327 43.9506C157.678 43.9506 158.029 43.8116 158.379 43.6725C159.081 43.6725 159.549 43.3943 159.9 42.9771ZM157.678 42.6989C156.742 42.4207 155.806 41.5862 155.222 40.3344C154.871 39.4999 154.754 38.3873 154.637 37.4137C154.637 37.2746 154.637 37.1355 154.637 37.1355C154.637 36.9964 154.637 36.7183 154.637 36.5792L160.367 40.8908C160.367 40.8908 160.367 40.8908 160.367 41.0299C160.251 41.5862 159.9 41.8644 159.432 42.2816C158.847 42.5598 158.262 42.838 157.678 42.6989Z" fill="#35D0BA"/>
<path d="M171.478 41.5862C171.594 41.8644 171.594 42.1425 171.711 42.4207C171.711 42.5598 171.711 42.838 171.945 42.9771C172.062 42.9771 172.062 42.9771 172.179 42.9771C172.296 42.9771 172.296 42.9771 172.413 42.9771C172.764 42.838 172.764 42.4207 172.647 42.0035V41.8644C172.647 41.8644 172.647 41.7253 172.647 41.5862C172.647 40.4735 172.647 39.9172 172.296 39.7781C172.062 39.639 171.828 39.7781 171.711 40.1954C171.594 40.1954 171.478 40.1954 171.478 40.1954C171.244 40.3345 171.127 40.6126 171.244 40.8908C171.244 41.169 171.361 41.308 171.478 41.5862Z" fill="#35D0BA"/>
<path d="M157.561 39.2218C157.561 38.9436 157.444 38.6654 157.21 38.6654C156.976 38.6654 156.742 38.8045 156.742 39.0827C156.742 39.639 156.742 40.0563 156.742 40.6126C156.742 40.7517 156.742 40.8908 156.742 41.0299C156.742 41.5862 156.742 41.7253 156.976 41.8644C157.093 41.8644 157.093 42.0035 157.21 42.0035H157.327C157.678 41.8644 157.795 41.4471 157.912 41.0299V40.8908C157.912 40.7517 158.028 40.7517 158.028 40.6126C158.145 40.4735 158.145 40.3344 158.262 40.0563C158.262 39.9172 158.262 39.7781 158.262 39.639C158.262 39.639 158.145 39.4999 157.912 39.3609C157.795 39.2218 157.678 39.2218 157.561 39.2218Z" fill="#35D0BA"/>
<path d="M167.501 42.9771C167.501 42.838 167.501 42.838 167.501 42.6989V42.2816C167.501 42.0035 167.384 41.8644 167.15 41.7253C166.917 41.5862 166.8 41.5862 166.566 41.4471C166.449 41.4471 166.332 41.4471 166.215 41.308C166.098 41.169 165.981 41.0299 165.864 40.8908C165.747 40.7517 165.63 40.6126 165.513 40.3344C165.513 40.0563 165.279 39.7781 165.045 39.7781C164.811 39.7781 164.578 40.0563 164.578 40.3344C164.578 40.4735 164.578 40.6126 164.578 40.6126H164.344C164.11 41.8644 165.162 43.1161 165.981 43.3943C166.098 43.3943 166.215 43.3943 166.332 43.3943C167.033 43.6725 167.384 43.5334 167.501 42.9771Z" fill="#35D0BA"/>
<path d="M170.308 46.0369C170.191 45.8978 170.191 45.8978 170.074 45.8978C169.373 45.4806 168.554 44.9242 168.32 44.2288C168.203 43.9506 167.969 43.8116 167.735 43.9506C167.501 44.0897 167.384 44.507 167.501 44.6461C167.501 44.6461 167.501 44.7851 167.618 44.7851H167.267C167.15 45.7587 167.969 46.8714 168.788 47.1496C169.022 47.2887 169.256 47.2887 169.489 47.2887C169.84 47.2887 170.074 47.1496 170.308 46.8714C170.425 46.8714 170.425 46.7323 170.542 46.5932C170.659 46.4542 170.542 46.176 170.308 46.0369Z" fill="#35D0BA"/>
<path d="M167.969 22.3926C168.086 22.5317 168.203 22.6707 168.32 22.6707C168.437 22.6707 168.554 22.6707 168.671 22.5317C169.139 23.6443 169.723 24.757 169.84 24.8961C169.84 25.0352 169.957 25.0352 170.074 25.0352H170.191L170.425 24.8961C170.542 24.8961 170.659 24.757 170.659 24.6179C170.659 24.3398 170.659 24.0616 170.542 23.7834C170.542 23.6443 170.659 23.5052 170.542 23.3662C170.425 23.088 170.425 22.8098 170.308 22.5317C170.308 22.5317 170.308 22.5317 170.308 22.3926C170.191 21.9753 169.957 21.419 169.84 21.0017C169.723 20.7236 169.606 19.8891 169.022 19.8891H168.905C168.554 19.8891 168.437 20.1672 167.969 21.9753C167.852 21.9753 167.852 21.9753 167.969 22.1144C167.969 22.2535 167.969 22.2535 167.969 22.3926Z" fill="#35D0BA"/>
<path d="M172.647 26.5651C172.764 26.5651 172.881 26.7042 172.998 26.7042C173.349 27.3996 173.7 28.2341 173.934 28.9295C174.284 29.764 174.518 30.5985 174.986 31.294C174.986 31.4331 175.103 31.4331 175.22 31.4331L175.805 31.294C175.922 31.294 176.039 31.1549 176.039 31.0158C176.272 29.0686 174.635 26.8433 173.349 25.5915L173.232 25.7306C173.115 25.7306 172.998 25.5915 172.998 25.5915C172.764 25.4524 172.53 25.5915 172.413 25.8697C172.296 26.1479 172.413 26.426 172.647 26.5651Z" fill="#35D0BA"/>
<path d="M210.421 26.1478C209.369 24.2007 207.965 22.5317 206.679 20.8626C206.328 20.4454 205.977 20.0281 205.743 19.6109C205.393 19.1936 205.159 18.7764 204.808 18.3591C204.457 17.9419 204.223 17.3855 203.872 16.9683C203.404 16.4119 203.054 15.8556 202.586 15.4384C201.767 14.4648 200.832 13.3521 200.013 12.2394C198.025 9.59682 196.738 7.23238 196.037 4.86795C195.92 4.58978 195.803 4.17253 195.803 3.89436C195.686 3.33802 195.452 2.78169 195.335 2.22535C195.335 2.08627 195.218 1.52993 195.218 1.52993C195.218 0.834506 195.218 0.417253 194.867 0.139085C194.75 5.28492e-07 194.516 0 194.399 0C194.166 0.139084 194.049 0.417253 194.049 0.695422V0.834506C193.815 1.39084 193.347 2.22535 192.879 2.78169C191.827 4.31161 190.306 5.2852 188.786 6.25879C188.435 6.39788 188.201 6.67605 187.85 6.81513C187.499 7.0933 187.032 7.37147 186.564 7.51055C185.161 7.92781 183.64 8.20597 182.12 8.48414C181.301 8.62323 180.6 8.76231 179.781 8.9014C179.547 8.9014 179.196 8.9014 178.962 8.9014C178.845 8.9014 178.728 8.9014 178.611 8.76231C178.144 8.62323 178.027 8.62323 177.793 8.76231C177.676 8.9014 177.676 9.04048 177.676 9.17956C177.676 9.31865 177.676 9.45773 177.793 9.59682L178.261 10.1532C178.611 10.5704 178.845 10.8486 179.079 11.4049C179.43 12.1003 179.781 12.7958 180.132 13.4912C180.6 14.3257 181.067 15.1602 181.535 15.9947C182.003 16.9683 182.354 17.8028 182.705 18.9155C183.523 22.1144 183.757 25.3133 183.874 27.8169C183.874 28.095 183.874 28.5123 183.874 28.7905C183.991 30.4595 183.991 32.2676 183.523 33.6584C183.289 34.0757 183.055 34.632 182.822 35.1883C182.822 35.3274 182.705 35.4665 182.705 35.6056C182.705 35.6056 182.705 35.6056 182.705 35.4665C182.354 34.7711 182.12 34.0757 182.003 33.3802C182.12 32.963 182.237 32.6848 182.354 32.4066C182.471 32.2676 182.822 31.294 182.471 30.8767C182.354 30.7376 182.237 30.5985 182.003 30.5985C181.769 30.5985 181.535 30.8767 181.418 31.0158L181.301 31.1549C181.301 30.0422 181.067 28.9295 180.833 27.6778C180.833 27.5387 180.833 27.3996 180.716 27.1214C180.6 26.1478 180.366 24.757 179.781 24.4788C179.664 24.4788 179.547 24.4788 179.43 24.4788C179.313 24.6179 179.079 24.757 178.962 25.0352C178.845 23.9225 178.611 22.9489 178.378 22.1144C177.676 19.8891 177.091 19.75 176.974 19.75C176.857 19.75 176.74 19.75 176.623 19.8891C176.623 19.8891 176.623 19.8891 176.506 20.0281C176.506 20.0281 176.389 20.0281 176.389 20.1672C176.272 20.3063 176.156 20.4454 176.156 20.5845C176.156 20.4454 176.039 20.3063 176.039 20.1672V19.8891C175.922 19.3327 175.805 18.9155 175.688 18.4982C175.337 17.2465 174.986 16.2729 174.518 15.7165C174.284 15.4384 174.05 15.2993 173.817 15.4384C173.232 15.4384 172.296 16.551 171.595 17.5246C171.478 17.1074 171.478 16.6901 171.478 16.1338C171.478 15.5774 171.361 14.882 171.244 14.3257V14.1866C171.127 13.6303 171.01 12.9348 170.659 12.7958C170.425 12.6567 170.308 12.6567 170.074 12.9348C169.723 13.0739 169.373 13.7693 169.139 14.3257C169.022 14.4648 168.905 14.7429 168.788 15.0211C168.788 15.0211 168.788 15.0211 168.788 15.1602L168.671 15.2993C168.671 15.1602 168.671 15.1602 168.554 15.0211C168.32 14.882 167.852 13.4912 167.501 12.1003C167.384 11.6831 167.267 11.4049 167.15 11.1267C167.034 10.2922 166.917 9.31865 166.332 9.31865C166.215 9.31865 166.098 9.31865 165.981 9.31865C165.63 9.31865 165.396 9.87499 165.045 10.8486C165.045 10.9877 164.928 11.1267 164.928 11.2658C164.812 11.4049 164.695 11.6831 164.578 11.9613C164.461 12.1003 164.227 12.3785 164.11 12.6567C164.11 12.1003 163.993 11.2658 163.525 10.5704C163.525 10.4313 163.525 10.4313 163.525 10.2922C163.525 10.1532 163.408 10.0141 163.291 9.87499C163.174 9.7359 162.94 9.7359 162.823 9.7359C162.59 9.7359 162.473 10.0141 162.239 10.2922C162.122 10.4313 162.005 10.7095 161.888 10.8486C161.771 10.9877 161.771 10.9877 161.771 11.1267C161.537 11.544 161.186 11.9613 160.952 12.2394C160.484 12.7958 160.017 13.3521 159.666 14.0475C159.666 14.1866 159.549 14.1866 159.549 14.3257C159.432 13.9084 159.315 13.6303 159.198 13.3521C159.081 13.0739 159.081 12.9348 158.964 12.9348C158.847 12.7958 158.73 12.7958 158.613 12.7958H158.496C158.379 12.7958 158.262 12.7958 158.145 13.0739C158.029 13.213 158.029 13.213 157.912 13.3521C157.678 13.6303 157.561 14.1866 157.327 14.7429C157.21 15.1602 156.859 15.8556 156.742 16.1338C156.625 15.8556 156.508 15.5774 156.508 15.2993C156.391 14.7429 156.274 14.4648 156.04 14.3257C155.69 14.0475 155.456 14.3257 154.988 15.1602C154.754 15.4384 154.52 15.9947 154.403 15.9947C153.818 17.1074 153.117 18.4982 152.883 19.8891C152.883 20.0281 152.766 20.1672 152.766 20.3063C152.649 20.0281 152.415 19.8891 152.064 19.8891C151.947 19.8891 151.713 19.8891 151.596 20.0281C151.479 20.1672 151.362 20.5845 151.246 21.1408C151.129 21.6972 151.012 22.3926 150.895 23.3662V23.6443C150.895 23.7834 150.895 23.9225 150.895 24.3398C150.895 24.6179 150.895 24.757 150.895 25.0352C150.895 25.1743 150.895 25.3133 150.895 25.3133C150.895 25.3133 150.895 25.4524 150.895 25.5915V25.7306C150.895 25.8697 150.895 26.0088 150.895 26.1478C150.661 26.0088 150.31 25.4524 150.193 25.1743C149.842 24.6179 149.608 24.3398 149.257 24.3398C149.14 24.3398 148.79 24.3398 148.673 25.4524C148.673 25.5915 148.556 25.8697 148.556 26.0088C148.556 26.1479 148.556 26.426 148.556 26.5651C148.439 27.9559 148.673 29.2077 149.024 30.4595C149.14 31.1549 149.257 31.8503 149.374 32.4066C149.257 32.2676 149.257 32.2676 149.14 32.1285C149.024 31.9894 149.024 31.9894 148.907 31.8503C148.79 31.7112 148.556 31.4331 148.322 31.4331C148.205 31.4331 147.971 31.5721 147.854 31.7112C147.62 32.1285 148.088 33.2412 148.088 33.2412C148.322 33.7975 148.556 34.3538 148.556 34.9102C148.556 35.0492 148.439 35.3274 148.322 35.4665C148.322 35.6056 148.205 35.7447 148.205 35.7447C148.088 36.0228 147.971 36.301 147.854 36.7183C147.737 36.4401 147.62 36.0228 147.503 35.7447C147.152 34.9102 146.801 33.9366 146.568 32.963C146.568 32.5457 146.451 32.2676 146.451 31.8503C146.217 27.6778 146.918 23.2271 148.439 19.3327C148.556 18.9155 148.79 18.6373 148.907 18.22C149.024 17.9419 149.14 17.8028 149.257 17.5246C149.725 16.6901 150.193 15.8556 150.661 15.0211C151.012 14.3257 151.362 13.6303 151.713 12.9348C151.947 12.5176 152.181 12.1003 152.532 11.6831L152.649 11.544L153.117 10.9877C153.234 10.8486 153.234 10.7095 153.234 10.5704C153.234 10.4313 153.234 10.2922 153.117 10.1532C152.883 9.87499 152.766 10.0141 152.298 10.1532C152.298 10.1532 152.181 10.1532 152.064 10.1532C152.064 10.1532 151.947 10.0141 151.83 10.0141C151.129 9.87499 150.427 10.0141 149.725 10.0141C149.608 10.0141 149.608 10.0141 149.491 10.0141C146.801 9.7359 144.579 9.04048 142.942 7.78872C142.591 7.64964 142.357 7.37147 142.007 7.23238C140.603 6.25879 139.083 5.2852 137.913 3.75528C137.446 3.19894 136.978 2.36443 136.744 1.8081V1.66901C136.627 1.39084 136.627 1.11268 136.393 0.973591C136.276 0.973591 136.042 0.973592 135.925 1.11268C135.691 1.39084 135.574 1.8081 135.574 2.50352C135.574 2.6426 135.574 2.78169 135.574 2.78169C135.458 3.47711 135.224 4.17253 134.99 4.72887C134.873 5.00704 134.756 5.42429 134.756 5.70246C134.171 7.78872 133.002 9.87499 131.364 12.2394C130.312 13.6303 129.259 14.882 128.207 16.1338C127.271 17.2465 126.452 18.22 125.751 19.1936C124.932 20.3063 124.114 21.419 123.412 22.5317C122.242 23.9225 121.19 25.3133 120.371 26.9824C117.097 33.3802 115.459 40.3345 115.693 46.7323C115.576 52.1566 116.395 57.4418 118.383 62.3098C120.02 66.3432 122.242 69.264 125.049 72.602C125.283 72.8802 125.4 73.1583 125.634 73.4365C126.102 74.1319 126.686 74.9664 127.271 75.2446C127.622 75.8009 128.207 76.3573 128.441 76.3573C128.558 76.3573 128.675 76.2182 128.791 76.0791C129.025 75.6619 128.791 75.1055 128.675 74.5492C128.675 74.4101 128.675 74.4101 128.558 74.4101C128.324 73.4365 128.09 72.4629 127.973 71.2112C127.622 68.5686 127.856 66.2041 128.908 63.2834C129.727 60.9189 132.3 57.9982 134.522 57.5809H134.639C135.224 57.4418 136.159 57.3027 136.744 57.4418C136.744 57.4418 136.978 57.5809 137.095 57.5809C137.68 57.8591 138.03 58.1372 138.264 57.72C138.381 57.4418 138.381 57.0246 138.498 56.3291C138.498 56.051 138.498 55.7728 138.498 55.7728C138.732 54.7992 139.083 54.1038 139.668 53.1302C139.785 53.1302 139.785 53.2693 139.902 53.4084C140.135 53.8256 139.902 54.5211 139.785 55.0774C139.668 55.3556 139.668 55.6337 139.551 55.9119C139.317 57.3027 139.668 58.9717 140.603 60.0844C141.422 61.058 142.474 61.4753 143.644 61.4753C144.579 61.4753 145.515 61.1971 146.217 60.7798C146.451 60.6408 146.451 60.7798 146.685 60.6408C146.685 61.3362 146.801 61.4753 146.568 62.1707C146.451 62.4489 146.334 62.5879 145.515 62.1707C145.281 62.0316 145.047 61.8925 144.813 61.8925C144.112 61.7534 143.293 61.8925 142.708 62.3098C142.007 62.8661 141.656 63.7006 141.539 64.396C141.539 64.8133 141.539 65.0915 141.422 65.3696C141.188 65.926 140.837 66.3432 140.252 66.4823C139.551 66.6214 138.849 66.4823 138.381 66.065C137.913 65.6478 137.68 64.6742 137.796 63.9788C137.913 63.5615 138.03 63.2834 138.381 63.1443C138.498 63.1443 138.732 63.1443 138.849 63.1443C139.083 63.7006 139.434 63.4224 139.551 63.4224C139.785 63.2834 139.902 63.1443 139.902 62.8661C139.902 62.3098 139.317 61.4753 139.083 61.3362C137.913 60.5017 136.276 61.3362 135.458 62.5879C134.522 64.1179 134.639 66.7605 134.99 68.1513C135.574 71.0721 137.446 73.0193 140.018 73.0193C140.135 73.0193 140.135 73.0193 140.252 73.0193C140.837 73.0193 141.773 72.8802 142.474 72.0457C142.942 71.6284 143.059 70.933 143.176 70.5157C143.176 70.2376 143.293 70.0985 143.41 69.8203C143.761 69.1249 144.463 68.4295 145.047 68.1513C145.515 67.8731 146.1 68.1513 146.685 68.4295C147.503 68.7076 148.322 69.1249 149.257 68.4295C151.012 67.595 151.362 66.065 151.596 64.396C151.83 63.4224 151.947 62.4489 152.532 61.6143C152.883 61.1971 153.351 61.1971 153.935 61.3362C154.052 61.3362 154.052 61.3362 154.169 61.3362C153.234 62.0316 152.532 63.1443 152.181 64.6742C152.064 65.3696 151.83 66.2041 151.947 67.0386C152.181 68.5686 153.117 68.7076 154.052 69.1249C154.988 69.6812 156.742 71.0721 157.093 72.4629C157.912 75.2446 155.69 77.8872 153.468 78.0263C151.947 78.1654 149.725 76.9136 150.076 74.6883C150.31 72.8802 151.713 71.7675 153.117 72.602C153.351 72.7411 153.584 73.0193 153.701 73.1583C153.818 73.4365 153.818 73.7147 153.701 74.1319C153.584 74.4101 153.351 74.5492 153.117 74.8274C152.883 74.9664 152.883 75.3837 153 75.5228C153.117 75.8009 153.468 75.8009 153.584 75.6619C156.04 74.1319 154.754 71.4893 154.754 71.3502C153.935 69.8203 152.064 69.1249 150.31 69.8203C149.024 70.3767 147.971 71.6284 147.269 73.1583C146.568 74.8274 146.568 76.7745 147.035 78.3045C147.854 80.808 150.31 82.6161 152.181 83.0333C152.649 83.1724 153.351 83.3115 153.935 83.3115C155.923 83.3115 158.145 82.7552 159.549 81.5034C160.251 80.9471 160.601 80.2516 161.069 79.4171C161.186 79.2781 161.303 79.139 161.303 78.9999C162.122 77.609 162.94 75.3837 162.59 73.5756C162.239 72.0457 161.42 70.933 160.484 69.8203C160.251 69.5422 160.017 69.264 159.783 68.9858C159.315 68.4295 158.964 67.7341 159.198 67.3168C159.666 66.3432 160.484 66.4823 161.654 66.7605C162.356 66.8996 163.057 67.0386 163.642 66.8996C163.759 66.8996 163.876 66.7605 163.993 66.7605C164.928 67.595 165.981 69.264 165.981 69.9594C165.981 70.933 165.279 71.7675 164.461 72.602C163.993 73.0193 163.642 73.5756 163.291 74.1319C162.94 74.8274 162.706 75.8009 162.473 76.7745C162.122 77.7481 161.654 78.7217 162.473 81.2252C162.823 82.7552 163.993 83.4506 165.396 84.146C166.449 84.7023 167.969 86.2323 168.203 87.7622C168.086 88.0404 167.969 88.4576 167.969 88.5967C167.618 89.2921 166.683 89.8485 165.513 89.8485C164.344 89.8485 163.408 89.5703 162.94 88.8749C162.94 88.7358 162.823 88.4576 162.706 87.2059C162.706 86.9277 162.706 86.7886 162.59 86.6495C162.473 86.5104 162.356 86.5104 162.239 86.5104C161.888 86.5104 161.303 87.3449 161.303 87.484C160.835 88.3185 160.718 89.153 160.835 89.8485C160.835 90.5439 161.186 91.2393 161.303 91.5175C161.42 91.7956 161.771 93.6037 164.578 93.7428C164.695 93.8819 165.981 93.8819 166.8 93.6037C167.267 93.6037 167.735 93.4647 168.203 93.3256C170.074 92.6302 171.478 91.2393 172.062 89.5703C172.881 87.484 172.296 85.3978 171.595 83.3115C171.361 82.6161 170.893 81.7816 170.308 81.2252C170.191 80.9471 169.957 80.808 169.84 80.5298C169.373 79.9735 168.905 79.139 168.788 78.3045C168.671 76.7745 169.139 75.5228 170.191 74.4101C170.425 74.1319 170.659 73.9929 170.893 73.7147C171.478 73.1583 172.179 72.602 172.53 71.6284C173.115 70.0985 173.232 69.1249 173.115 68.0122C173.349 68.1513 173.583 68.2904 173.7 68.4295C173.933 68.9858 173.933 69.5422 173.817 70.2376C173.583 71.3503 172.764 72.4629 172.062 73.4365C171.711 73.8538 171.478 74.271 171.244 74.6883C169.723 77.0527 170.776 80.9471 172.062 82.7552C173.466 84.7023 175.22 86.9277 177.676 87.6231C178.144 87.7622 178.611 87.7622 179.079 87.7622C180.833 87.7622 182.822 86.9277 184.108 85.6759C185.394 84.4242 185.979 82.8943 185.979 81.3643C185.979 79.4171 185.161 77.7481 183.757 76.9136C183.055 76.4964 182.12 76.4964 181.184 77.0527C180.249 77.47 179.664 78.1654 179.43 78.9999C179.43 79.139 179.313 79.6953 179.664 79.9735C180.015 80.2516 180.132 79.9735 180.716 79.4171C180.833 79.2781 180.833 79.2781 180.833 79.2781H180.95C181.652 79.2781 182.354 79.4171 182.471 80.808C182.471 80.9471 182.471 80.9471 182.471 81.0861C182.354 81.5034 182.12 82.0597 182.003 82.0597C181.067 82.8943 179.781 83.0333 178.962 82.477C176.623 80.808 176.272 76.3573 177.559 73.4365C177.91 72.602 178.378 71.7675 178.845 70.933C179.43 69.8203 180.015 68.8467 180.366 67.595C180.483 67.7341 180.6 68.0122 180.716 68.1513C180.95 68.4295 181.301 68.5686 181.769 68.5686C181.886 68.5686 182.12 68.5686 182.354 68.4295C182.705 68.2904 183.406 68.1513 183.523 68.4295C183.64 68.8467 183.523 69.264 183.289 69.8203C183.055 70.3767 182.705 71.2112 182.822 72.0457C182.822 72.1848 182.822 72.1848 182.822 72.3238C182.822 73.5756 183.289 74.9664 183.64 75.3837C183.991 75.8009 184.459 76.4964 185.161 76.7745C185.277 76.7745 185.862 77.0527 186.564 77.3309C187.266 77.609 187.967 77.7481 188.669 77.7481C188.903 77.7481 189.254 77.7481 189.488 77.609C192.762 77.0527 194.867 73.9928 194.75 69.9594C194.75 68.8467 194.633 67.3168 193.932 66.3432C193.23 65.3696 192.06 65.6478 191.242 66.3432C191.125 66.3432 191.125 66.4823 191.008 66.4823C190.891 66.6214 190.774 66.6214 190.657 66.7605C190.423 67.0386 190.072 67.3168 190.189 67.7341C190.306 68.0122 190.423 68.1513 190.657 68.1513C191.008 68.1513 191.125 68.0122 191.242 67.8731C191.359 67.7341 191.359 67.7341 191.476 67.7341C191.71 67.7341 191.827 67.8731 191.944 68.1513C191.944 68.2904 191.944 68.2904 192.06 68.4295C191.593 70.3767 190.072 72.4629 188.552 72.4629C187.967 72.4629 187.616 72.3238 187.383 71.9066C186.915 71.0721 187.383 69.264 187.733 67.8731C187.85 67.3168 187.967 66.8995 188.084 66.4823C188.201 65.6478 188.201 64.8133 187.967 64.1179C187.383 62.3098 186.213 61.4753 184.693 62.0316C184.459 62.0316 184.342 62.1707 184.225 62.3098C183.64 62.5879 183.406 62.727 183.055 62.3098C182.822 62.0316 182.822 61.8925 182.822 61.3362C182.705 60.3626 182.822 59.2499 183.055 58.5545C183.172 58.2763 183.172 58.1372 183.289 57.8591C183.406 57.72 183.406 57.4418 183.523 57.3027C184.108 58.6936 185.161 59.9453 186.798 60.6408C186.798 60.6408 186.798 60.6408 186.915 60.6408C187.383 60.9189 187.85 60.9189 188.318 60.9189C189.838 60.9189 191.593 59.8063 192.528 58.5545C193.113 57.72 193.464 56.6073 193.464 55.4946C193.464 55.6337 193.581 55.7728 193.581 55.9119C193.815 56.3291 194.166 56.1901 194.75 55.7728C194.867 55.7728 194.984 55.6337 194.984 55.6337C195.569 55.4946 196.505 55.6337 197.089 55.6337H197.206C199.428 55.9119 202.001 58.8327 202.82 61.3362C203.755 64.257 203.989 66.6214 203.755 69.264C203.638 70.3767 203.404 71.4893 203.171 72.3238C203.171 72.3238 203.171 72.4629 203.054 72.4629C202.82 73.0193 202.703 73.5756 202.937 73.9929C203.054 74.1319 203.171 74.271 203.288 74.271C203.638 74.271 204.106 73.7147 204.574 73.1583L204.808 72.8802C205.86 71.6284 207.03 70.2376 208.082 68.7076C208.901 67.595 209.72 66.2041 210.538 64.8133C211.24 63.8397 211.942 62.8661 212.526 61.7534C215.333 56.6073 216.386 51.0439 216.386 45.4806C215.567 40.1954 213.93 32.8239 210.421 26.1478ZM139.668 50.2094C138.498 51.7394 137.329 53.2693 136.744 55.2165V55.3556C136.51 56.051 136.393 56.4682 136.393 56.7464H136.276C135.691 56.6073 134.99 56.4682 134.639 56.4682C132.885 56.4682 130.897 57.5809 129.61 59.1108C126.569 62.8661 125.283 68.1513 126.219 72.8802C125.985 72.7411 125.868 72.4629 125.634 72.3238C125.283 71.9066 125.049 71.6284 124.815 71.3502C123.061 69.1249 121.775 66.4823 120.488 63.8397C115.81 54.382 117.447 44.2288 119.786 34.7711C120.02 33.7975 120.605 32.6848 121.19 31.7112C121.424 31.1549 121.775 30.7376 121.892 30.3204C123.412 27.1214 125.517 24.2007 127.505 21.419C129.259 19.0546 131.013 16.551 132.534 13.7693C132.885 13.213 133.235 12.6567 133.586 11.9613C134.639 10.2922 135.925 8.20598 136.393 6.11971C138.147 10.2922 142.124 12.9348 146.451 12.9348C146.801 12.9348 147.152 12.9348 147.503 12.9348C147.737 12.9348 148.088 12.9348 148.439 12.9348C149.024 12.9348 149.491 12.9348 150.076 12.9348C147.62 15.7165 145.164 19.0546 144.346 23.088C143.878 25.7306 143.761 28.3732 143.761 31.4331C143.761 32.963 145.047 38.8045 146.568 40.1954C146.918 40.4735 147.152 40.6126 147.386 40.6126C147.386 40.6126 147.386 40.6126 147.503 40.6126C147.503 40.8908 147.503 41.169 147.62 41.4471C147.854 42.977 148.79 43.9506 149.608 44.9242C149.959 45.3415 150.31 45.6197 150.544 46.0369L150.661 46.176C150.895 46.5932 151.129 47.0105 151.246 47.5668C150.31 47.1496 149.024 46.8714 148.322 46.7323C145.164 45.7587 141.89 47.1496 139.668 50.2094ZM144.93 54.2429C145.281 55.9119 145.398 57.0246 144.346 57.8591C144.112 58.1372 143.644 58.2763 143.41 58.2763C143.059 58.2763 142.474 57.9982 142.241 57.5809C142.124 57.3027 142.124 56.7464 142.007 56.3291C142.007 55.9119 142.007 55.3556 141.89 54.9383C141.656 53.9647 140.954 53.1302 140.135 52.713C142.124 49.9313 145.047 47.845 147.737 48.5404H147.971H148.088C148.673 48.6795 149.491 48.8186 149.959 49.0968C149.959 49.0968 150.076 49.0968 150.193 49.2358C151.012 49.514 151.362 49.7922 151.479 49.9313C151.479 50.3485 151.362 50.6267 151.129 50.9049C150.895 50.9049 150.427 50.3485 150.193 50.0703C149.959 49.7922 149.725 49.6531 149.608 49.514C149.14 49.2358 148.556 49.0968 147.971 49.0968C147.035 49.0968 146.1 49.514 145.515 50.0703C144.346 51.183 144.696 52.713 144.93 54.2429ZM169.957 71.9066C169.723 72.7411 169.022 73.4365 168.437 74.1319C167.618 74.9664 166.8 75.94 166.566 77.3309C166.215 79.6953 166.8 81.9207 168.437 84.146L168.671 84.4242C169.256 85.2587 169.957 86.0932 169.957 87.2059C170.074 89.014 169.139 90.4048 168.32 91.6565C167.852 92.352 167.735 92.4911 165.63 93.3256C164.578 93.3256 163.525 93.1865 163.174 93.0474C162.706 92.7692 162.239 92.2129 161.888 91.7956C161.771 91.6566 161.654 91.3784 161.537 90.9611C162.239 91.7956 163.408 92.352 164.695 92.2129C166.098 92.0738 167.267 91.5175 167.852 90.4048C168.086 89.9875 168.203 89.4312 168.32 89.014C168.437 88.4576 168.437 87.9013 168.437 87.484C168.671 85.6759 167.384 84.5633 165.864 83.7288C164.461 82.8942 162.94 81.9207 162.59 79.8344C162.59 79.5562 162.59 78.5826 162.59 78.1654C162.94 77.3309 163.525 76.6354 164.344 75.6619C165.162 74.5492 166.098 73.4365 166.566 71.9066C166.8 71.2112 166.566 69.9594 165.864 68.7076C165.747 68.4295 165.513 68.1513 165.396 67.8731C165.162 67.595 164.928 67.3168 164.695 67.0386C165.279 66.4823 165.747 65.6478 166.098 64.8133C166.449 65.7869 167.034 67.1777 167.852 68.1513C168.32 68.7077 168.788 69.264 169.373 69.6812C169.723 69.8203 169.957 69.9594 170.308 70.0985C170.191 70.6548 170.191 71.4893 169.957 71.9066ZM189.838 59.2499C188.669 60.2235 186.798 60.7798 185.511 59.6672C184.693 58.8327 184.342 57.5809 183.991 56.3291C183.64 54.9383 183.289 53.4084 182.12 52.4348C182.12 52.4348 182.003 52.4348 182.003 52.2957C181.184 51.6003 180.366 51.6003 179.664 51.8784C179.313 51.8784 178.962 52.0175 178.611 52.0175C178.378 52.1566 178.027 52.1566 177.793 52.1566C177.559 52.1566 177.325 52.4348 177.325 52.713C177.325 52.9911 177.559 53.2693 177.793 53.2693C178.144 53.2693 178.378 53.1302 178.728 53.1302C179.079 52.9911 179.547 52.9911 179.781 52.9911C180.249 53.1302 180.716 53.4084 181.184 53.8256C182.588 55.0774 182.237 56.3291 181.535 58.5545C181.418 58.8327 181.418 58.9717 181.301 59.2499C180.95 60.0844 180.833 61.3362 180.95 62.5879C180.95 63.1443 181.067 63.5615 181.418 64.1179C182.12 65.0915 182.939 64.6742 183.523 64.396C183.64 64.2569 183.757 64.2569 183.991 64.2569C185.394 63.7006 185.979 65.0915 186.096 65.7869C186.213 66.3432 186.33 67.0386 186.213 67.595C186.213 67.8731 185.979 68.4295 185.862 68.8467C185.394 70.5157 184.927 72.602 185.628 73.8538C185.979 74.4101 186.564 74.8274 187.499 74.8274C189.371 74.8274 191.008 73.5756 191.827 71.6284C192.06 71.2112 192.411 69.6812 192.294 68.5686C192.762 69.1249 192.879 70.0985 192.879 70.933C192.762 71.4893 192.645 72.1848 192.294 72.8802C191.359 75.5228 189.722 77.0527 187.616 77.0527C186.564 76.4964 184.927 75.5228 184.576 75.1055C184.342 74.6883 183.757 73.7147 183.289 73.0193C183.406 72.602 183.523 72.3238 183.64 71.7675C183.991 70.6548 184.342 69.6812 183.874 68.4295C183.64 67.595 182.939 67.3168 182.237 67.3168C181.886 67.1777 181.652 67.1777 181.301 67.0386C180.716 66.8996 180.132 66.8996 179.664 65.926C179.664 65.7869 179.664 65.6478 179.664 65.5087C179.547 64.257 179.196 63.1443 178.728 62.4489C178.494 62.1707 178.261 61.7534 177.91 61.6143C177.559 61.1971 177.091 60.9189 176.623 60.6408C176.389 60.5017 176.156 60.5017 175.922 60.3626C175.22 60.0844 174.518 59.8063 174.401 59.1108C174.05 57.5809 174.05 56.051 174.518 54.6601C174.635 54.382 174.635 53.9647 174.635 53.5475C174.635 53.4084 174.635 53.4084 174.635 53.2693C174.635 53.1302 174.518 52.4348 174.401 52.2957H174.284C174.284 52.1566 174.167 52.1566 174.05 52.0175C173.817 51.8784 173.583 52.1566 173.466 52.4348L173.349 52.852C173.349 53.1302 173.232 53.2693 173.232 53.5475C172.764 55.6337 172.296 57.5809 172.881 59.8063C173.115 60.6408 173.349 61.4753 173.933 61.8925C174.518 62.4489 175.22 62.3098 175.805 62.3098C176.156 62.3098 176.506 62.3098 176.857 62.3098C178.378 62.8661 178.845 64.8133 178.845 65.7869C178.962 68.0122 178.027 69.8203 176.974 71.7675C176.506 72.602 176.039 73.4365 175.688 74.4101C174.401 77.47 174.401 82.7552 177.442 84.8414C178.611 85.5369 180.249 85.3978 181.418 84.2851C182.12 83.7288 182.822 82.1988 182.822 80.9471C182.939 80.5298 183.055 80.1126 182.939 79.6953C182.822 79.2781 182.705 79.139 182.471 78.9999C182.354 78.9999 182.003 78.8608 181.652 78.8608C182.003 78.8608 182.354 78.8608 182.588 78.8608C183.523 79.4171 184.108 80.5298 184.225 82.0597C184.108 83.5897 183.055 85.1196 182.12 85.6759C181.886 85.815 181.535 85.9541 181.184 86.0932C180.95 86.2323 180.716 86.3714 180.483 86.5104C179.781 86.7886 179.079 86.9277 178.261 86.7886C175.922 86.6495 173.933 85.2587 172.647 82.7552C172.53 82.477 172.413 82.3379 172.296 82.0597C171.828 81.2252 171.361 80.5298 171.361 79.5562C171.244 78.0263 172.062 76.6355 172.998 75.2446C174.05 73.4365 175.103 71.6284 174.518 69.4031C174.05 67.7341 172.647 67.1777 171.361 66.6214C170.425 66.2041 169.373 65.7869 168.788 64.9524C168.203 64.1179 167.735 62.8661 167.618 61.4753C167.618 61.3362 167.618 61.058 167.618 60.9189C167.618 60.9189 167.618 60.9189 167.618 60.7798C167.618 60.6408 167.618 60.5017 167.618 60.2235C167.618 59.8062 167.735 59.2499 167.735 58.8327C167.735 58.6936 167.735 58.5545 167.735 58.4154C167.735 58.2763 167.735 58.1372 167.735 57.9982C167.852 57.3027 167.969 56.8855 167.735 56.4682C167.618 56.3291 167.501 56.1901 167.384 56.1901H167.267H167.15C167.034 56.1901 167.034 56.1901 166.917 56.1901C166.683 56.3291 166.566 56.4682 166.332 57.72C166.332 57.9982 166.215 58.4154 166.215 58.8327C165.981 60.3626 165.396 63.2834 163.876 64.8133C163.291 65.5087 162.59 66.065 161.888 66.2041C161.537 66.2041 161.069 66.065 160.484 65.926C160.484 65.926 160.484 65.926 160.367 65.926C159.549 65.6478 158.613 65.3696 157.912 65.926C157.444 66.3432 157.21 66.8996 157.093 67.7341C156.976 68.5686 157.093 69.264 157.444 69.8203C157.795 70.6548 158.262 71.3502 158.73 71.9066C158.964 72.1848 159.081 72.4629 159.315 72.7411C160.835 74.9664 160.718 77.7481 159.081 79.8344C156.508 83.1724 152.181 82.8942 149.725 80.808C147.62 78.9999 147.035 74.9664 148.205 73.1583C148.673 72.4629 149.257 72.0457 149.959 71.7675C150.661 71.4893 151.596 71.6284 152.415 72.0457C150.427 71.9066 148.205 74.8274 149.024 77.0527C149.725 78.9999 151.713 79.8344 153.351 79.5562C155.923 79.139 157.912 76.6354 157.678 73.5756C157.678 72.7411 157.444 71.9066 157.21 71.4893C157.093 71.2112 156.625 70.0985 153.935 68.5686C153.234 68.2904 152.766 68.0122 152.532 66.4823C152.415 65.926 152.532 65.5087 152.766 65.0915C154.169 62.727 154.754 62.1707 156.859 61.4753C157.21 61.3362 157.561 61.1971 157.912 61.058C158.379 60.7798 158.964 60.6408 159.432 60.3626C160.251 59.8063 160.718 59.1108 160.952 58.2763C161.186 57.9982 161.303 57.72 161.42 57.3027C161.654 56.3291 161.537 55.2165 160.835 53.9647C160.835 53.8256 160.718 53.6865 160.718 53.5475C160.601 53.2693 160.251 53.2693 160.134 53.4084C159.9 53.5475 159.9 53.9647 160.017 54.1038V54.2429H159.666C159.666 54.9383 159.666 55.4946 159.549 55.9119C159.432 56.7464 159.198 57.4418 158.847 57.8591C158.379 58.5545 157.678 58.8327 156.976 59.2499C156.508 59.5281 155.923 59.8062 155.339 60.2235C154.988 60.0844 154.637 59.9453 154.286 59.8063C152.415 59.389 150.427 60.0844 149.374 62.1707C149.14 62.5879 149.14 63.0052 149.14 63.4224C149.024 63.7006 149.024 63.9788 148.907 64.2569C148.673 65.2305 148.439 65.926 147.62 66.4823C147.269 66.7605 146.918 66.8996 146.568 67.0386C146.334 67.0386 146.1 67.0386 145.866 67.0386C144.696 66.8996 143.527 66.7605 142.708 67.4559C142.357 67.7341 141.305 69.1249 140.603 70.3767C139.317 71.9066 137.212 71.3502 136.744 70.7939C135.691 69.5421 134.99 65.3696 135.224 64.1179C135.341 63.4224 136.627 62.4489 137.446 62.8661C137.329 62.8661 137.095 62.8661 136.978 63.0052C136.393 63.2834 135.925 63.8397 135.808 64.6742C135.691 65.7869 136.042 67.0386 136.744 67.7341C137.446 68.4295 138.498 68.7076 139.434 68.4295C140.252 68.1513 141.188 67.595 141.539 66.7605C141.773 66.3432 141.89 65.926 141.89 65.5087C142.007 64.8133 141.773 64.396 142.241 64.1179C142.708 63.8397 143.293 63.7006 143.761 63.8397C143.878 63.8397 144.112 63.9788 144.346 64.1179C144.93 64.396 145.983 64.9524 146.568 63.5615C147.152 62.3098 147.035 60.9189 146.918 59.6672C146.801 58.5545 146.801 57.5809 147.035 56.7464C147.152 56.4682 147.269 56.3291 147.62 56.051L147.737 55.9119C148.673 55.0774 149.725 54.7992 151.246 55.0774C151.479 55.0774 151.83 55.2165 152.064 55.3556C152.766 55.6337 153.584 55.9119 154.403 55.4946C154.52 55.4946 154.637 55.3556 154.754 55.2165C155.339 54.7992 155.69 53.8256 155.807 52.9911C155.923 52.0175 155.923 51.3221 155.456 50.9049C155.222 50.7658 154.988 50.7658 154.871 50.9049C154.754 51.0439 154.754 51.4612 154.871 51.6003C154.754 52.4348 154.637 52.9911 154.286 53.4084C153.701 53.9647 152.883 53.6865 151.947 53.5475C151.246 53.4084 150.427 53.2693 149.842 53.4084C148.556 53.6865 147.62 54.2429 147.035 54.7992C147.035 54.7992 147.035 54.9383 146.918 54.9383C146.801 55.0774 146.451 55.7728 146.451 55.9119C146.1 57.0246 146.334 58.5545 146.334 58.5545C146.1 58.4154 145.866 58.6936 145.281 59.1108C144.229 59.9453 142.474 61.1971 141.188 60.2235C140.369 59.5281 139.902 57.9982 140.018 56.8855C140.018 56.6073 140.369 55.6337 140.252 53.6865C140.252 53.5475 140.135 53.2693 140.135 53.2693C140.603 53.5475 140.72 54.1038 140.954 54.7992C141.071 55.0774 141.071 55.4946 141.071 55.9119C141.071 56.4682 141.071 57.0246 141.305 57.5809C141.656 58.4154 142.591 58.8327 143.293 58.8327C143.761 58.8327 144.346 58.5545 144.696 58.2763C146.334 57.0246 145.983 55.0774 145.749 53.5475C145.515 52.0175 145.398 51.183 146.1 50.4876C146.451 50.0703 147.152 49.9313 147.854 49.7922C148.439 49.6531 148.907 49.7922 149.257 49.9313C149.374 49.9313 149.491 50.2094 149.725 50.3485C150.193 50.9049 150.778 51.6003 151.362 51.4612C151.596 51.4612 151.83 51.3221 152.064 50.9049C152.298 50.4876 152.415 50.0703 152.415 49.7922C153.117 48.9577 152.649 47.7059 152.298 46.7323C152.298 46.5932 152.181 46.5932 152.181 46.4542C151.713 44.9242 150.895 43.8116 150.193 42.6989C149.842 42.1425 149.608 41.7253 149.257 41.169C149.14 40.8908 149.024 40.6126 148.79 40.3344C148.205 39.2218 148.439 37.97 148.673 36.5792C148.79 36.0228 148.907 35.4665 148.907 34.9102C149.14 35.4665 149.491 36.0228 149.959 36.301C150.076 36.301 150.076 36.4401 150.193 36.4401H150.31C150.427 36.4401 150.427 36.4401 150.427 36.4401L150.661 36.301C150.778 36.1619 150.778 36.0228 150.778 35.8837C150.778 35.6056 150.661 35.4665 150.544 35.1883C150.544 35.0492 150.544 34.9102 150.427 34.7711C150.193 34.3538 149.959 33.7975 149.725 33.3802C149.842 33.2411 149.842 33.1021 149.842 33.1021C149.842 33.1021 149.842 33.1021 149.842 32.963H150.076C150.193 32.5457 150.193 31.9894 150.193 31.5721C150.193 30.3204 150.076 28.9295 149.959 27.6778C149.959 27.3996 149.959 27.2605 149.842 26.9824C150.31 27.3996 150.778 27.6778 151.129 27.6778C151.479 27.6778 151.596 27.5387 151.713 27.3996C152.064 26.9824 152.064 25.5915 152.064 23.7834C152.064 23.2271 152.064 22.8098 152.064 22.5317C152.532 23.6443 153 24.757 153.468 25.0352L153.584 25.1743C153.701 25.1743 153.818 25.1743 153.935 25.1743C154.754 24.8961 154.754 23.9225 154.754 23.088V22.9489C154.754 22.6707 154.754 22.3926 154.754 22.1144C154.871 22.3926 154.988 22.5317 154.988 22.6707C155.339 23.3662 155.573 23.9225 155.69 24.2007C155.69 24.3398 155.807 24.3398 155.923 24.3398H156.157C156.274 24.3398 156.391 24.2007 156.391 24.0616C156.625 23.3662 156.508 22.2535 156.04 21.2799C155.807 20.7236 155.573 20.3063 155.339 20.0281C155.222 19.8891 155.222 19.8891 155.105 19.75C155.105 19.6109 155.105 19.6109 154.988 19.4718C154.988 19.4718 154.871 19.3327 154.637 19.3327C154.403 19.1936 154.169 19.1936 153.935 19.1936C153.935 19.0546 153.935 18.9155 154.052 18.9155C154.169 18.3591 154.52 17.8028 154.754 17.2465C154.871 16.9683 154.988 16.8292 155.105 16.551C155.339 17.1074 155.573 17.8028 155.923 17.9419C156.274 18.22 156.508 18.081 156.859 17.9419C157.327 17.5246 157.678 16.4119 158.029 15.1602C158.145 14.882 158.145 14.6039 158.262 14.4648C158.496 15.2993 158.73 16.2729 158.964 16.4119C159.081 16.4119 159.198 16.4119 159.315 16.4119C159.666 16.1338 159.666 15.7165 159.783 15.4384C159.783 15.2993 159.9 15.1602 159.9 15.0211C160.367 14.1866 160.952 13.4912 161.537 12.7958C161.771 12.5176 162.122 12.2394 162.356 11.8222C162.473 13.0739 162.473 14.3257 162.59 14.4648C162.706 14.882 163.057 15.0211 163.525 15.0211C163.642 15.0211 163.642 15.0211 164.812 13.3521C165.747 11.9613 165.864 11.6831 165.981 11.544C166.098 12.5176 166.449 13.6303 166.8 14.882L166.917 15.1602C166.917 15.1602 166.917 15.2993 166.917 15.5774C167.034 17.1074 167.15 17.3855 167.501 17.3855C167.618 17.3855 167.852 17.3855 167.969 17.2465C168.086 17.3855 168.203 17.3855 168.32 17.3855C168.437 17.3855 168.554 17.1074 168.554 16.8292C169.022 16.4119 169.373 15.8556 169.723 15.2993C169.723 15.7165 169.606 19.1936 170.308 20.0281C170.425 20.1672 170.659 20.3063 170.776 20.3063C171.478 20.3063 172.062 19.1936 172.881 17.6637C173.115 17.3855 173.232 16.9683 173.466 16.6901C173.583 16.551 173.583 16.551 173.7 16.551C173.817 16.6901 173.817 16.8292 173.933 16.9683C174.167 17.6637 174.401 18.9155 174.518 19.8891C174.401 19.6109 174.284 19.4718 174.167 19.3327C174.05 19.1936 173.933 19.1936 173.817 19.3327C173.466 19.4718 173.349 20.1672 173.232 21.2799C173.232 21.419 173.232 21.6972 173.115 21.8362C173.115 21.9753 173.115 22.1144 172.998 22.1144H173.115C173.115 22.3926 173.349 22.5317 173.466 22.5317C173.583 22.5317 173.7 22.5317 173.7 22.3926H173.933C173.933 22.2535 173.933 22.1144 174.05 21.9753C174.05 21.8362 174.05 21.8362 174.05 21.6972C174.167 22.1144 174.401 22.5317 174.401 22.9489V23.088C174.401 23.5053 174.518 23.7834 174.518 23.9225C174.518 24.2007 174.635 24.3398 174.635 24.4788C174.752 24.8961 174.869 25.0352 174.986 25.1743H175.103C175.22 25.1743 175.22 25.1743 175.337 25.1743C175.805 24.8961 176.389 23.5052 176.857 22.1144C177.091 22.8098 177.208 23.3662 177.325 24.0616C177.325 24.2007 177.325 24.6179 177.325 25.1743C177.208 27.3996 177.091 28.9295 177.91 29.0686C178.144 29.0686 178.378 28.9295 178.611 28.7905C178.728 28.7905 178.728 28.7905 178.845 28.6514C178.962 28.5123 179.079 28.2341 179.079 27.9559C179.313 27.3996 179.547 26.8433 179.547 26.426C179.547 26.426 179.547 26.426 179.547 26.5651C179.547 28.3732 179.547 30.1813 179.43 31.9894C179.43 32.1285 179.43 32.2676 179.313 32.5457C179.313 32.6848 179.196 32.8239 179.196 32.963C179.196 32.963 179.196 33.1021 179.079 33.1021C178.962 33.3802 178.845 33.6584 178.728 33.9366C178.611 33.7975 178.378 33.7975 178.261 33.9366C177.91 34.3538 177.442 34.632 177.091 35.0492C176.506 35.6056 175.922 36.0228 175.337 36.4401L175.103 36.5792C174.635 36.9964 174.05 37.2746 173.583 37.5528C172.413 38.3873 171.595 38.6654 170.542 39.2218C168.086 40.3344 167.969 39.4999 167.852 39.0827C167.735 38.8045 167.501 38.6654 167.267 38.8045C167.034 38.9436 166.917 39.2218 167.034 39.4999C167.267 40.0563 167.618 40.8908 168.554 41.169C168.554 41.8644 168.788 42.4207 169.022 42.838C169.489 43.8116 170.191 44.3679 171.127 44.3679C171.244 44.3679 171.361 44.3679 171.361 44.3679C171.711 44.3679 171.945 44.3679 172.296 44.2288C174.635 44.0897 175.688 42.4207 176.506 39.3609C176.506 39.2218 176.623 39.0827 176.623 38.9436C177.208 37.2746 177.325 36.5792 177.208 36.1619C177.676 35.7447 178.144 35.4665 178.611 34.9102C178.611 35.1883 178.494 35.4665 178.494 35.7447C178.494 35.8838 178.611 36.0228 178.611 36.0228L178.845 36.1619H178.962H179.079C180.015 35.4665 180.6 34.4929 180.833 33.3802C180.833 33.5193 180.833 33.6584 180.833 33.7975C180.833 34.0757 180.95 34.3538 181.067 34.4929C181.067 34.632 181.184 34.7711 181.184 34.9102C181.535 36.0228 181.769 36.9964 181.535 38.1091C181.418 39.0827 180.716 39.9172 180.015 40.6126C179.898 40.7517 179.898 40.7517 179.781 40.8908C179.547 41.169 179.196 41.4471 179.079 41.8644C177.676 43.8116 176.74 47.845 178.494 50.2094C178.494 50.3485 178.611 50.3485 178.728 50.3485H178.845C178.962 50.4876 179.196 50.4876 179.313 50.4876C179.898 50.4876 180.366 49.6531 180.95 49.2358C181.886 48.4013 183.64 48.4013 184.459 48.9577C185.277 49.514 185.161 50.4876 184.927 52.0175C184.693 53.5475 184.459 55.4946 186.213 56.6073C186.681 56.8855 187.149 57.0246 187.616 57.0246C188.318 57.0246 189.137 56.4682 189.488 55.6337C189.722 55.0774 189.722 54.521 189.722 53.8256C189.722 53.4084 189.722 52.9911 189.838 52.713C189.838 52.4348 190.189 52.0175 190.423 51.6003C190.54 51.4612 190.774 51.3221 190.891 51.183C190.891 51.183 190.891 51.183 190.891 51.3221C190.891 51.3221 190.891 51.3221 190.774 51.4612C190.306 52.2957 190.657 53.2693 191.008 54.1038C191.125 54.2429 191.125 54.382 191.125 54.521C191.71 57.0246 190.774 58.4154 189.838 59.2499ZM175.454 37.4137C175.454 37.6918 175.337 37.8309 175.22 38.1091C175.103 38.3873 175.103 38.6654 174.986 38.9436C174.635 40.1954 174.05 41.4471 173.349 42.2816C172.647 43.1161 171.711 43.6725 171.01 43.5334C170.425 43.5334 169.957 43.1161 169.606 42.4207C169.373 42.0035 169.256 41.5862 169.256 41.308C169.256 41.169 169.256 41.169 169.256 41.0299L175.454 37.4137ZM185.277 48.9577C184.342 48.2623 182.471 47.845 181.301 48.5404C181.184 48.5404 180.716 49.0968 180.483 49.3749C180.249 49.6531 179.43 50.0704 179.313 49.9313C179.313 49.2358 179.196 48.6795 179.313 48.1232C179.664 47.845 180.249 47.5668 180.6 47.4278C180.716 47.4278 180.833 47.2887 180.95 47.2887C181.418 47.1496 182.003 47.0105 182.471 46.8714C185.394 46.176 188.435 48.6795 190.423 51.6003C189.955 52.1566 189.254 53.1302 189.137 53.6865C189.137 53.8256 189.137 54.2429 189.137 54.7992C189.137 55.2165 189.137 55.7728 189.02 56.051C188.786 56.4682 188.318 56.7464 187.967 56.7464C187.616 56.7464 187.266 56.6073 187.032 56.4682C185.979 55.7728 185.979 54.6601 186.213 52.9911C186.447 51.6003 186.564 49.9313 185.277 48.9577ZM212.176 53.6865C210.655 60.2235 207.147 66.2041 203.755 71.4893C204.574 67.0386 204.457 60.2235 201.533 57.5809C199.545 55.7728 197.908 54.6601 196.505 54.2429C195.686 54.1038 194.867 54.1038 194.166 54.2429C193.932 52.4348 192.996 50.4876 192.06 49.2358C191.125 47.845 187.733 43.5334 183.523 43.9506C183.172 43.9506 182.237 44.2288 181.301 44.507C180.95 44.6461 180.6 44.7851 180.249 44.9242C180.366 44.6461 180.483 44.3679 180.716 44.2288C180.95 43.8116 181.301 43.5334 181.535 43.1161C182.354 42.0035 183.289 40.8908 183.523 39.3609C183.523 39.0827 183.523 38.8045 183.523 38.6654C183.64 38.6654 183.64 38.5264 183.757 38.5264C184.927 37.4137 186.564 31.8503 186.564 29.9031C186.681 23.7834 185.161 15.7165 180.833 11.1267C185.745 10.9877 191.593 10.0141 194.283 4.17253C194.984 10.1532 198.61 14.6039 202.118 18.9155C204.223 21.419 206.445 24.0616 207.848 26.9824C210.655 31.9894 214.748 42.5598 212.176 53.6865Z" fill="#35D0BA"/>
<path d="M190.54 42.5598C190.189 42.5598 189.955 42.5598 189.605 42.5598C189.371 42.5598 189.137 42.838 189.137 43.1161C189.137 43.3943 189.371 43.6725 189.605 43.6725C189.955 43.6725 190.306 43.6725 190.657 43.6725H190.774C190.891 43.6725 191.125 43.6725 191.242 43.6725C191.476 43.6725 191.71 43.6725 192.06 43.5334C192.879 43.5334 193.815 43.8116 194.75 44.0897L195.101 44.2288C195.569 44.3679 195.92 44.507 196.388 44.6461C196.621 44.7851 196.855 44.9242 196.972 44.9242C197.323 45.0633 197.557 45.2024 197.908 45.3415C198.726 45.7587 199.545 46.176 200.364 46.7323C200.481 46.8714 200.598 47.0105 200.832 47.1496C202.937 48.9577 204.691 52.0175 205.276 55.2165C205.509 56.1901 205.509 57.1637 205.626 58.2763C205.626 58.9717 205.626 59.8063 205.626 60.5017C205.626 60.9189 205.626 61.1971 205.626 61.6143C205.626 61.7534 205.626 62.0316 205.626 62.3098C205.626 63.1443 205.509 63.9788 205.509 64.8133C205.509 65.0915 205.743 65.3696 205.977 65.3696C205.977 65.3696 205.977 65.3696 206.094 65.3696L206.913 58.9717C206.913 58.2763 206.913 57.5809 206.913 56.8855C206.913 54.9383 206.913 53.1302 206.211 51.0439C203.638 43.8116 196.271 41.5862 190.54 42.5598Z" fill="#35D0BA"/>
<path d="M140.72 45.7587C140.954 45.7587 141.188 45.4806 141.188 45.2024C141.188 44.9242 140.954 44.6461 140.72 44.6461H140.603C136.861 43.8116 133.235 44.2288 130.429 45.6196C127.154 47.2887 124.815 50.4876 123.763 54.7992C122.827 58.2763 123.412 62.1707 123.997 65.6478L124.113 66.4823H124.23C124.23 66.6214 124.23 66.6214 124.23 66.7605C124.23 67.0386 124.464 67.3168 124.698 67.3168C124.932 67.3168 125.166 67.0386 125.166 66.7605C125.166 65.7869 125.166 64.8133 125.049 63.8397C124.932 61.6143 124.815 59.2499 125.283 57.1637C125.985 53.6865 127.856 50.4876 130.195 48.6795C130.896 48.1232 131.715 47.7059 132.651 47.2887C133.002 47.1496 133.235 47.0105 133.586 46.8714C134.405 46.4542 135.107 46.0369 135.925 45.7587C137.446 45.4806 138.966 45.4806 140.72 45.7587C140.603 45.7587 140.486 45.8978 140.72 45.7587Z" fill="#35D0BA"/>
<path d="M142.124 43.3943C142.357 43.5334 142.474 43.6725 142.708 43.8116C142.825 43.8116 142.825 43.9506 142.942 43.9506C143.293 44.2288 143.761 44.507 144.346 44.507C144.579 44.507 144.813 44.2288 144.813 43.9506C144.813 43.8116 144.696 43.6725 144.579 43.5334C144.579 43.3943 144.462 43.3943 144.346 43.2552C142.474 42.4207 140.72 40.8908 139.317 38.9436C139.317 38.9436 139.317 38.9436 139.317 38.8045C136.393 34.0757 134.99 28.2341 134.99 19.8891C134.99 19.6109 134.756 19.3327 134.522 19.3327C134.288 19.3327 134.054 19.6109 134.054 19.8891C134.054 20.0281 134.054 20.1672 134.054 20.3063H133.937C133.82 20.7236 133.82 21.1408 133.703 21.419C133.352 22.9489 133.119 24.6179 133.119 26.2869C133.119 33.7975 136.627 40.0563 142.124 43.3943Z" fill="#35D0BA"/>
<path d="M197.206 25.0352C197.206 23.5052 196.972 22.1144 196.738 20.8626C196.621 20.0281 196.388 19.1936 196.388 18.3591C196.388 18.22 196.388 18.22 196.388 18.081C196.388 17.8028 196.154 17.5246 195.92 17.5246C195.803 17.5246 195.686 17.5246 195.686 17.6637C195.452 17.6637 195.335 17.9419 195.335 18.081C195.218 18.9155 195.335 19.8891 195.452 20.7236C195.452 20.8626 195.452 21.0017 195.452 21.1408C195.101 27.9559 193.815 32.8239 191.242 36.9964C190.072 38.8045 188.786 39.7781 187.266 40.8908C187.149 40.8908 187.032 41.0299 187.032 41.0299C186.681 41.308 186.447 41.4471 186.096 41.4471C185.862 41.4471 185.628 41.7253 185.628 42.0035C185.628 42.2816 185.862 42.5598 186.096 42.5598C186.33 42.5598 186.564 42.5598 186.798 42.4207V42.5598C192.645 40.4735 197.089 33.1021 197.206 25.0352Z" fill="#35D0BA"/>
<path d="M159.315 21.8362C159.315 21.9753 159.315 21.9753 159.315 22.1144C159.432 22.2535 159.549 22.3926 159.666 22.3926C159.783 22.3926 160.017 22.2535 160.017 22.1144C160.017 22.1144 160.017 21.9753 160.017 21.8362C160.017 21.6972 160.017 21.5581 160.017 21.419C160.017 21.2799 160.134 21.1408 160.251 20.8626C160.368 21.2799 160.484 21.6972 160.718 21.9753C160.835 22.1144 160.952 22.2535 160.952 22.2535C161.069 22.3926 161.303 22.3926 161.537 22.3926C161.654 22.3926 161.888 22.3926 162.005 22.2535C162.122 22.1144 162.239 22.1144 162.356 21.9753C162.823 21.419 163.174 20.4454 163.525 19.1936V19.3327C163.642 19.6109 163.642 19.8891 163.642 20.1672C163.642 20.8626 163.759 21.419 163.876 21.9753C163.876 22.1144 163.993 22.2535 164.11 22.2535H164.461C164.578 22.2535 164.695 22.1144 164.695 21.9753C164.812 21.419 164.812 18.081 163.993 17.1074C163.759 16.8292 163.525 16.8292 163.291 16.8292C163.057 16.8292 163.057 17.1074 162.94 17.2465C162.823 17.5246 162.473 18.081 162.122 18.4982C161.888 18.9155 161.537 19.1936 161.42 19.6109C161.303 19.3327 161.303 18.9155 161.186 18.7764C161.186 18.7764 161.186 18.6373 161.069 18.6373C160.952 18.4982 160.835 18.3591 160.718 18.3591C160.718 18.3591 160.601 18.3591 160.484 18.3591C160.484 18.3591 160.484 18.3591 160.368 18.3591C160.251 18.3591 159.9 18.3591 159.783 18.6373C159.783 18.6373 159.783 18.7764 159.783 18.9155C159.783 19.0545 159.666 19.0546 159.666 19.1936L159.549 19.3327C159.432 19.4718 159.432 19.4718 159.432 19.6109C159.081 20.0281 158.847 20.5845 158.73 21.2799H158.847C159.315 21.5581 159.315 21.6972 159.315 21.8362Z" fill="#35D0BA"/>
<path d="M153.701 31.5721L153.935 31.7112H154.052C154.403 31.5721 154.754 31.0158 154.871 30.5986C154.988 30.4595 154.988 30.1813 155.105 30.1813C156.04 28.6514 157.093 27.3996 158.029 26.2869L157.795 26.0088C157.912 25.8697 158.029 25.5915 157.912 25.3133C157.795 25.0352 157.561 25.0352 157.327 25.1743C156.157 26.0088 153.818 28.3732 153.584 30.5986C153.584 30.7376 153.468 30.8767 153.468 31.0158C153.468 31.294 153.468 31.4331 153.584 31.5721C153.584 31.4331 153.701 31.5721 153.701 31.5721Z" fill="#35D0BA"/>
<path d="M167.501 37.4137C167.735 37.97 168.32 38.2482 168.905 38.2482C169.489 38.2482 170.074 38.1091 170.542 37.97C170.659 37.97 170.659 37.97 170.776 37.8309C171.244 37.6918 171.711 37.4137 172.062 37.1355C173.817 36.1619 175.337 34.632 176.74 33.1021C176.974 32.8239 177.325 32.6848 177.559 32.5457C177.793 32.4066 177.91 32.1285 177.793 31.8503C177.676 31.5721 177.442 31.4331 177.208 31.5721C176.506 31.8503 175.688 32.5457 175.103 33.2412L174.986 33.3802C173.7 34.3538 172.413 35.0492 171.01 35.3274H170.893C170.659 35.3274 170.308 35.3274 169.957 35.4665C168.788 35.6056 168.086 35.6056 167.735 35.8838L167.618 36.0228L167.501 37.2746V37.4137Z" fill="#35D0BA"/>
<path d="M154.637 42.9771C154.52 42.838 154.403 42.6989 154.286 42.6989C154.169 42.5598 153.935 42.4207 153.818 42.2816C153 40.6126 152.649 38.8045 152.532 36.7183C152.532 36.1619 152.415 35.6056 152.415 35.0492C152.415 34.7711 152.181 34.4929 151.947 34.4929C151.713 34.4929 151.479 34.7711 151.479 35.0492C151.479 35.1883 151.479 35.1883 151.479 35.3274C150.427 38.1091 151.012 42.2816 152.883 44.2288C153 44.3679 153 44.3679 153.117 44.507C153.701 45.0633 154.403 45.8978 155.105 45.8978C155.339 45.8978 155.456 45.8978 155.69 45.7587C155.806 45.7587 155.806 45.6197 155.806 45.4806L155.923 45.0633C155.923 44.9242 155.923 44.9242 155.923 44.7851C155.69 44.2288 155.222 43.5334 154.637 42.9771Z" fill="#35D0BA"/>
<path d="M162.59 41.8644H162.356C162.239 41.8644 162.239 41.8644 162.122 42.0035C162.122 42.0035 162.122 42.0035 162.122 42.1425C162.005 42.1425 162.005 42.2816 161.888 42.4207C161.771 42.6989 161.654 42.9771 161.42 43.2552C160.952 43.9506 160.368 44.507 159.666 44.9242C159.432 45.0633 159.198 45.0633 158.964 45.0633C158.847 45.0633 158.73 45.0633 158.73 45.0633C158.496 45.0633 158.262 45.0633 158.029 45.2024C157.795 45.2024 157.678 45.4806 157.678 45.7587C157.678 46.0369 157.912 46.176 158.146 46.176H158.262C158.379 46.176 158.379 46.176 158.496 46.176V46.3151C158.73 46.3151 159.081 46.3151 159.432 46.3151C160.601 46.3151 161.888 45.8978 162.707 44.3679C163.057 43.8116 163.525 42.838 162.94 42.0035C162.823 41.8644 162.707 41.8644 162.59 41.8644Z" fill="#35D0BA"/>
<path d="M178.494 41.4471C178.728 40.8908 178.962 40.1954 178.845 39.4999C178.845 39.3609 178.845 39.2218 178.728 39.0827C178.728 38.9436 178.611 38.8045 178.377 38.8045H178.261C178.144 38.8045 178.027 38.8045 177.91 38.9436C177.325 39.4999 177.091 40.3345 176.857 41.0299C176.74 41.4471 176.623 41.7253 176.506 42.0035C176.506 42.0035 176.506 42.1425 176.389 42.1425C175.805 43.3943 174.635 45.4806 173.466 46.3151C173.232 46.4542 172.998 46.5932 172.881 46.5932C172.647 46.5932 172.413 46.8714 172.413 47.1496C172.413 47.4278 172.647 47.7059 172.881 47.7059H172.998V47.9841C173.232 47.9841 173.466 47.9841 173.7 47.9841C175.922 47.9841 177.559 46.0369 178.377 42.2816C178.261 42.0035 178.377 41.7253 178.494 41.4471Z" fill="#35D0BA"/>
<path d="M164.344 34.4929C164.11 34.0757 163.642 33.7975 163.291 33.6584C163.174 33.6584 163.174 33.6584 163.057 33.6584L162.707 33.7975C162.59 33.7975 162.473 33.9366 162.473 34.0757C162.122 35.0493 162.473 36.0228 162.94 36.8573C163.291 37.6919 163.642 38.3873 163.525 39.0827H163.642C163.642 39.0827 163.642 39.2218 163.525 39.2218C163.408 39.4999 163.408 39.7781 163.642 39.9172C163.759 39.9172 163.759 40.0563 163.876 40.0563C163.993 40.0563 164.11 39.9172 164.227 39.7781C164.344 39.639 164.344 39.4999 164.461 39.3609C164.695 38.6654 165.162 35.8838 164.344 34.4929Z" fill="#35D0BA"/>
<path d="M259.333 24.825C262.187 25.1267 264.851 26.8615 267.578 26.2581C265.485 28.5208 264.47 33.2726 264.851 37.0438C263.709 35.5353 260.855 34.1022 259.967 34.0268C258.255 33.876 255.972 34.9319 255.274 36.893C255.211 37.1947 255.147 37.5718 255.147 37.8735C255.084 43.9829 267.514 46.9244 267.324 59.5958C267.261 62.2356 266.246 66.4594 264.977 68.5713C263.646 70.6832 261.68 73.6247 257.938 73.6247C254.45 73.6247 251.469 71.5883 247.283 73.0967C249.186 70.2306 249.63 65.4034 249.186 62.1602C251.152 63.5933 254.703 65.1017 257.367 63.5933C259.206 62.5373 260.031 58.9924 259.777 57.1067C259.016 52.355 247.727 47.9804 246.776 40.6642C246.649 39.7591 246.586 38.7786 246.649 37.8735C246.649 37.5718 246.649 37.2701 246.712 36.9684C246.839 33.0463 245.19 32.4429 243.541 34.9319C239.673 30.1047 240.561 22.9394 244.873 21.8835C248.742 20.8275 248.932 25.2776 257.177 24.825C257.494 24.7496 257.811 24.7496 258.128 24.7496H258.191C258.572 24.7496 258.952 24.7496 259.333 24.825V24.825ZM288.54 64.2721C287.462 67.1382 287.588 71.0603 288.92 73.851C286.257 72.7951 276.3 71.6637 269.577 73.4739C271.289 62.839 271.86 51.9024 271.48 41.0413C270.972 33.4989 268.943 32.5183 267.357 34.9319C263.489 30.1047 264.377 22.9394 268.689 21.8835C272.748 20.8275 273.636 26.3335 281.373 26.0318C283.403 25.881 285.432 25.4284 287.398 24.825C286.003 28.4454 285.876 32.6692 287.081 36.365C284.734 35.309 282.198 34.9319 279.724 35.3845C279.344 35.4599 279.027 35.5353 278.773 35.7616C278.456 36.0633 278.266 36.4404 278.139 36.893C277.314 39.5328 277.061 42.399 277.441 45.1897C277.441 45.4159 277.505 45.7176 277.631 45.9439C277.822 46.0948 278.075 46.1702 278.329 46.1702C280.612 46.3965 283.276 45.9439 285.369 44.8125C284.481 48.2066 284.417 52.355 285.432 55.5982C283.149 54.6177 281.119 53.7881 278.836 54.3915C278.583 54.4669 278.392 54.5423 278.266 54.6932C278.075 54.9194 277.948 55.1457 277.885 55.4474C277.124 58.3135 277.187 61.5568 278.075 64.4229C278.202 64.8 278.329 65.2526 278.646 65.4789C279.661 66.2331 282.071 65.856 283.276 65.7806C285.052 65.5543 286.891 65.1017 288.54 64.2721ZM312.038 24.5233C311.912 30.0293 311.848 58.4644 318 73.2476C314.068 71.89 310.58 71.362 307.282 73.7756C307.662 71.7391 307.916 67.6662 307.536 65.6297C307.345 64.4229 307.092 63.1407 306.331 62.2356C305.633 61.4814 304.682 60.878 303.984 61.4814C300.623 64.0458 302.145 71.8145 302.272 73.2476C299.672 71.9654 294.661 71.7391 290.983 73.2476C292.632 67.7416 294.471 53.5618 295.486 41.7956C296.057 33.348 293.266 32.4429 291.617 34.9319C287.749 30.1047 288.636 22.9394 292.949 21.8835C297.008 20.8275 297.515 26.2581 307.345 25.5038C309.248 25.353 310.96 25.0513 312.038 24.5233V24.5233ZM306.648 51.0728C306.711 50.3185 306.901 49.5643 306.838 48.81C306.838 48.0558 306.838 47.2261 306.775 46.3965C306.648 44.5863 306.584 42.7761 306.14 40.8905C305.887 39.7591 305.57 38.326 304.809 37.4209C303.667 36.1387 302.969 38.4014 302.779 39.4574C302.272 41.7201 302.081 43.9829 301.955 46.2456C301.891 48.0558 301.891 49.7906 301.955 51.6007C302.018 51.9779 302.018 52.355 302.208 52.6567C302.779 53.8635 304.618 53.4864 305.506 53.0338C305.76 52.9584 306.014 52.7321 306.204 52.4304C306.457 52.0533 306.521 51.6007 306.648 51.0728V51.0728Z" fill="#111111"/>
</svg>
